<svg width="1448" height="1032" viewBox="0 0 1448 1032" fill="none" xmlns="http://www.w3.org/2000/svg">
<g clip-path="url(#clip0)" filter="url(#filter0_d)">
<path d="M1371.37 319.817C1371.37 605.571 1964.98 444.968 1679.22 444.968C1393.47 444.968 1615.94 914.401 1615.94 628.647C1615.94 342.892 727.907 0 1013.66 0C1299.42 0 1371.37 34.062 1371.37 319.817Z" fill="#074978"/>
<path d="M-554.632 -163.183C-554.632 122.571 38.978 -38.0321 -246.777 -38.0321C-532.531 -38.0321 -310.064 431.401 -310.064 145.647C-310.064 -140.108 -1198.09 -483 -912.339 -483C-626.584 -483 -554.632 -448.938 -554.632 -163.183Z" fill="#074978"/>
<path d="M152.368 882.817C152.368 1168.57 745.978 1007.97 460.223 1007.97C174.469 1007.97 396.936 1477.4 396.936 1191.65C396.936 905.892 -491.093 563 -205.339 563C80.416 563 152.368 597.062 152.368 882.817Z" fill="#074978"/>
<path d="M1043.82 604.632C1329.57 604.632 1168.97 11.022 1168.97 296.777C1168.97 582.531 1638.4 360.064 1352.65 360.064C1066.89 360.064 724 1248.09 724 962.339C724 676.584 758.062 604.632 1043.82 604.632Z" fill="#074978"/>
</g>
<defs>
<filter id="filter0_d" x="0" y="0" width="1448" height="1032" filterUnits="userSpaceOnUse" color-interpolation-filters="sRGB">
<feFlood flood-opacity="0" result="BackgroundImageFix"/>
<feColorMatrix in="SourceAlpha" type="matrix" values="0 0 0 0 0 0 0 0 0 0 0 0 0 0 0 0 0 0 127 0"/>
<feOffset dy="4"/>
<feGaussianBlur stdDeviation="2"/>
<feColorMatrix type="matrix" values="0 0 0 0 0 0 0 0 0 0 0 0 0 0 0 0 0 0 0.25 0"/>
<feBlend mode="normal" in2="BackgroundImageFix" result="effect1_dropShadow"/>
<feBlend mode="normal" in="SourceGraphic" in2="effect1_dropShadow" result="shape"/>
</filter>
<clipPath id="clip0">
<rect width="1440" height="1024" fill="white" transform="translate(4)"/>
</clipPath>
</defs>
</svg>
